<?xml version="1.0" encoding="UTF-8" standalone="no"?>
<!-- Created with Inkscape (http://www.inkscape.org/) -->

<svg
   version="1.1"
   id="svg280"
   width="800"
   height="800"
   viewBox="0 0 800 800"
   sodipodi:docname="bear-outline-publicdomainvectors.org.svg"
   inkscape:version="1.2 (dc2aedaf03, 2022-05-15)"
   xmlns:inkscape="http://www.inkscape.org/namespaces/inkscape"
   xmlns:sodipodi="http://sodipodi.sourceforge.net/DTD/sodipodi-0.dtd"
   xmlns="http://www.w3.org/2000/svg"
   xmlns:svg="http://www.w3.org/2000/svg">
  <defs
     id="defs284">
    <clipPath
       clipPathUnits="userSpaceOnUse"
       id="clipPath296">
      <path
         d="M 0,600 H 600 V 0 H 0 Z"
         id="path294" />
    </clipPath>
  </defs>
  <sodipodi:namedview
     id="namedview282"
     pagecolor="#ffffff"
     bordercolor="#000000"
     borderopacity="0.25"
     inkscape:showpageshadow="2"
     inkscape:pageopacity="0.0"
     inkscape:pagecheckerboard="0"
     inkscape:deskcolor="#d1d1d1"
     showgrid="false"
     inkscape:zoom="1.04625"
     inkscape:cx="400"
     inkscape:cy="400.4779"
     inkscape:window-width="1920"
     inkscape:window-height="1017"
     inkscape:window-x="-8"
     inkscape:window-y="-8"
     inkscape:window-maximized="1"
     inkscape:current-layer="g288">
    <inkscape:page
       x="0"
       y="0"
       id="page286"
       width="800"
       height="800" />
  </sodipodi:namedview>
  <g
     id="g288"
     inkscape:groupmode="layer"
     inkscape:label="Page 1"
     transform="matrix(1.3333333,0,0,-1.3333333,0,800)">
    <g
       id="g290">
      <g
         id="g292"
         clip-path="url(#clipPath296)">
        <g
           id="g298"
           transform="translate(301.7002,123.8818)">
          <path
             d="m 0,0 c -0.039,0.876 -0.113,1.756 -0.248,2.622 -0.419,2.61 -1.178,5.079 -1.852,6.883 -0.338,0.902 -0.653,1.638 -0.897,2.141 -0.235,0.509 -0.444,0.771 -0.459,0.749 0.022,0.01 0.16,-0.27 0.283,-0.812 0.132,-0.536 0.281,-1.312 0.418,-2.247 0.274,-1.867 0.479,-4.387 0.344,-6.833 -0.071,-1.218 -0.233,-2.414 -0.491,-3.461 -0.159,-0.65 -0.365,-1.228 -0.59,-1.725 -3.013,-2.563 -7.698,-3.942 -16.244,-1.12 0,0.083 0.007,0.167 0.006,0.25 -0.028,1.448 -0.292,2.893 -0.641,4.283 -1.455,5.556 -4.398,10.249 -4.398,10.249 0,0 0.496,-1.289 1.017,-3.276 0.524,-1.978 1.094,-4.666 1.242,-7.311 0.066,-1.317 0.032,-2.621 -0.176,-3.743 -0.14,-0.786 -0.369,-1.461 -0.64,-1.984 -1.288,-0.839 -3.653,-1.345 -8.465,-1.34 -1.084,10e-4 -7.051,0.28 -9.494,1.483 0.09,1.313 0.033,2.655 -0.108,3.969 -0.335,3.028 -1.115,5.91 -1.857,8.005 -0.724,2.107 -1.489,3.374 -1.489,3.374 -0.001,0 0.515,-1.381 0.834,-3.541 0.338,-2.147 0.561,-5.059 0.347,-7.881 -0.085,-1.07 -0.227,-2.127 -0.448,-3.097 -25.786,3.503 -13.318,9.953 -14.066,33.073 3.688,-0.875 7.563,-1.326 11.612,-1.326 4.102,0 8.376,0.451 12.806,1.36 8.828,1.812 17.656,5.448 25.306,9.81 C 2.997,28.731 19.155,7.874 0,0 m -72.748,35.074 c -0.026,0.054 -0.056,0.109 -0.083,0.162 0.041,-0.028 0.082,-0.055 0.123,-0.084 z M 67.78,290.689 c 6.562,2.743 16.698,19.783 16.698,19.783 1.026,0.313 4.738,1.12 5.729,-0.882 6.608,-13.367 12.837,-16.277 15.737,-19.243 4.884,-4.994 7.472,-12.437 2.772,-23.797 -3.116,-7.53 -10.753,-14.107 -19.704,-14.541 l -0.322,10.98 c 4.31,0.976 14.877,8.399 10.389,14.676 -3.291,4.603 -23.88,4.479 -25.325,-0.392 -2.708,-9.124 9.801,-14.096 13.764,-14.381 l 0.318,-10.906 c -4.213,0.053 -8.681,1.478 -13.08,4.811 -13.903,10.53 -13.27,31.262 -6.976,33.892 m -7.104,19.783 c 0,1.866 1.512,3.379 3.379,3.379 1.866,0 3.379,-1.513 3.379,-3.379 0,-1.866 -1.513,-3.379 -3.379,-3.379 -1.867,0 -3.379,1.513 -3.379,3.379 m 45.268,3.379 c 1.867,0 3.378,-1.513 3.378,-3.379 0,-1.866 -1.511,-3.379 -3.378,-3.379 -1.866,0 -3.379,1.513 -3.379,3.379 0,1.866 1.513,3.379 3.379,3.379 m 73.39,-177.283 c -1.764,34.668 -8.53,74.211 -10.099,84.004 -0.796,4.976 -4.715,39.814 -9.4,32.033 -10.87,-18.056 -25.638,-20.204 -47.397,-29.095 -54.646,-22.328 -21.743,-73.253 -32.319,-72.073 -11.358,25.07 -16.064,68.253 40.76,83.538 54.556,14.674 56.681,77.651 31.61,103.113 5.388,23.894 -9.4,49.651 -21.152,49.357 -11.751,-0.294 -20.485,-9.42 -23.259,-17.182 -3.673,-10.283 -6.316,-2.938 -6.316,-2.938 -7.051,5.141 -29.882,7.026 -39.419,1.008 l -1.769,-5.175 -1.565,-0.097 C 54.896,379.219 31.404,389.184 22.146,380.002 4.859,362.864 12.646,330.45 14.701,325.455 4.126,273.454 28.562,253.489 47.606,235.849 1.774,258.765 1.187,304.008 9.807,324.083 c 0,0 -3.794,10.272 -2.89,21.791 -22.446,-15.712 -62.138,-74.575 -50.777,-130.59 0.169,-0.832 -3.429,-2.497 -4.455,-3.452 -14.69,40.09 8.813,98.052 33.491,125.081 -32.905,3.917 -96.609,22.132 -164.375,-60.129 -67.768,-82.263 -34.851,-173.123 -10.185,-202.129 37.214,-43.76 24.143,-59.325 27.812,-67.27 6.707,-14.527 6.484,-20.792 33.984,-17.423 l -0.032,0.253 c 0,0 0.47,0.002 1.287,0.007 0.164,0 0.353,0.001 0.541,0.002 0.012,0.018 0.023,0.036 0.036,0.054 0.777,1.293 1.448,2.878 1.871,4.516 0.425,1.641 0.597,3.357 0.434,4.954 -0.156,1.595 -0.656,3.065 -1.322,4.22 -0.657,1.165 -1.442,2.018 -2.024,2.576 -0.585,0.556 -0.964,0.841 -0.964,0.841 0,0 0.426,-0.183 1.147,-0.596 0.713,-0.416 1.721,-1.081 2.732,-2.158 1.012,-1.065 1.987,-2.569 2.619,-4.371 0.639,-1.797 0.932,-3.852 0.903,-5.896 -0.022,-1.591 -0.223,-3.172 -0.584,-4.694 2.032,-1.271 5.152,-2.207 8.204,-2.492 0.38,0.072 0.753,0.142 1.147,0.22 1.303,0.264 2.651,0.536 4.092,0.858 1.475,0.334 2.819,0.586 4.149,1.038 1.323,0.443 2.609,1.009 3.737,1.76 1.121,0.751 2.092,1.678 2.747,2.796 0.323,0.555 0.578,1.153 0.761,1.775 0.184,0.627 0.293,1.279 0.319,1.941 0.121,2.655 -0.778,5.247 -1.795,7.275 -1.028,2.051 -2.194,3.621 -3.061,4.665 -0.012,0.016 -0.023,0.027 -0.036,0.043 -0.847,1.013 -1.4,1.551 -1.4,1.551 0,0 0.536,-0.395 1.391,-1.151 0.091,-0.08 0.168,-0.143 0.266,-0.231 1.018,-0.926 2.42,-2.333 3.792,-4.311 1.348,-1.969 2.752,-4.545 3.087,-7.781 0.133,-1.305 -0.004,-2.716 -0.414,-4.092 -0.094,-0.315 -0.188,-0.632 -0.313,-0.941 -0.04,-0.097 -0.094,-0.186 -0.136,-0.28 3.163,-1.171 6.456,-2.081 14.362,-1.632 7.818,0.443 10.882,3.742 11.724,4.897 l -0.123,0.11 c 0.111,0.125 0.236,0.295 0.359,0.515 l -2.034,15.789 c -1.421,4.036 -3.527,9.049 -6.562,15.246 -1.501,3.067 -3.217,6.408 -5.208,10.085 -1.734,3.203 -3.579,6.487 -5.497,9.814 -1.497,2.598 -3.041,5.225 -4.628,7.875 -32.644,39.347 -42.365,70.656 -44.548,90.703 -2.677,24.6 4.898,38.232 5.224,38.801 l 6.126,-3.491 c -0.062,-0.11 -6.879,-12.644 -4.267,-35.201 1.165,-10.045 4.37,-23.111 11.769,-38.775 l 0.493,0.33 c 12.381,-18.51 22.584,-34.412 30.769,-48.033 1.862,-2.241 3.812,-4.512 5.83,-6.808 1.645,-1.87 3.324,-3.752 5.078,-5.658 1.927,-2.097 3.949,-3.867 6.031,-5.359 3.465,-2.482 7.099,-4.181 10.756,-5.29 8.379,-2.541 16.87,-1.976 23.682,-0.58 6.159,1.264 12.034,3.369 17.348,5.881 0.401,0.189 0.793,0.384 1.187,0.577 1.407,0.693 2.775,1.411 4.093,2.149 10.859,6.089 18.496,13.471 19.904,17.468 0.686,1.952 0.877,3.873 0.782,5.655 C 6.15,74.124 1.792,82.467 -5.174,92.666 -17.662,110.955 -51.4,152.706 -37.592,164.164 -27.897,123.033 13.922,88.846 16.859,68.868 19.261,52.543 11.47,7.201 27.498,-9.807 c 0.048,0.104 0.092,0.212 0.139,0.315 0.134,0.336 0.336,0.613 0.518,0.897 0.193,0.276 0.356,0.574 0.573,0.804 0.411,0.494 0.819,0.95 1.252,1.336 0.411,0.412 0.862,0.733 1.255,1.061 0.421,0.301 0.808,0.587 1.184,0.823 1.489,0.957 2.555,1.388 2.555,1.388 0,0 -0.829,-0.812 -1.796,-2.187 -0.48,-0.688 -0.999,-1.509 -1.408,-2.418 -0.223,-0.446 -0.383,-0.922 -0.531,-1.39 -0.093,-0.229 -0.104,-0.471 -0.157,-0.7 -0.041,-0.23 -0.103,-0.458 -0.084,-0.676 l -0.008,-0.632 0.122,-0.55 c 0.006,-0.18 0.132,-0.324 0.195,-0.467 0.084,-0.138 0.094,-0.281 0.231,-0.392 0.218,-0.227 0.342,-0.435 0.629,-0.604 0.108,-0.086 0.216,-0.17 0.319,-0.251 0.109,-0.08 0.277,-0.146 0.396,-0.213 0.271,-0.13 0.44,-0.263 0.693,-0.355 0.248,-0.089 0.464,-0.168 0.643,-0.231 0.339,-0.13 0.532,-0.203 0.532,-0.203 l -0.265,-0.435 c 3.496,-1.526 8.144,-2.391 15.125,-2.534 -0.108,1.64 -0.123,3.46 0.063,5.288 0.138,1.359 0.387,2.708 0.747,3.934 0.355,1.226 0.833,2.324 1.35,3.188 0.513,0.866 1.052,1.496 1.455,1.906 0.405,0.387 0.648,0.591 0.648,0.591 0,0 -0.161,-0.278 -0.407,-0.776 -0.228,-0.494 -0.498,-1.224 -0.669,-2.118 -0.364,-1.791 -0.196,-4.21 0.393,-6.512 0.52,-2.048 1.315,-3.989 2.052,-5.473 4.453,0.122 9.67,0.456 15.867,1.02 1.331,0.122 2.577,0.269 3.755,0.438 -0.001,0.76 0.042,1.5 0.098,2.221 0.257,3.013 0.723,5.797 0.523,7.895 -0.037,0.523 -0.119,0.995 -0.224,1.407 -0.106,0.41 -0.229,0.774 -0.365,1.042 -0.257,0.567 -0.529,0.849 -0.506,0.856 -0.011,-0.019 0.309,-0.188 0.751,-0.68 0.238,-0.242 0.471,-0.565 0.715,-0.961 0.247,-0.395 0.491,-0.866 0.7,-1.4 0.89,-2.129 1.308,-5.175 1.922,-7.925 0.133,-0.594 0.287,-1.17 0.454,-1.714 32.474,7.395 -7.727,39.82 11.079,99.446 1.314,4.174 9.793,4.602 11.381,0.865 3.577,-8.425 1.211,-33.628 0.271,-58.447 -0.599,-15.863 -7.932,-17.921 -5.483,-31.142 2.44,-13.186 24.287,-9.401 24.287,-9.401 0,0 0.225,-0.003 0.631,-0.005 0.2,0.43 0.383,0.881 0.551,1.346 1.3,3.678 1.665,7.894 1.476,10.951 -0.101,1.537 -0.345,2.814 -0.668,3.655 -0.155,0.426 -0.32,0.73 -0.457,0.941 -0.146,0.2 -0.223,0.306 -0.223,0.306 0,0 0.099,-0.088 0.282,-0.254 0.17,-0.169 0.421,-0.461 0.669,-0.857 0.516,-0.792 1.043,-2.045 1.483,-3.603 0.852,-3.124 1.438,-7.439 0.871,-11.949 -0.046,-0.319 -0.113,-0.641 -0.173,-0.962 7.409,-3.812 16.577,-2.236 22.858,1.956 0.234,1.172 0.272,2.6 0.168,4.055 -0.214,3.172 -0.995,6.439 -1.661,8.841 -0.671,2.413 -1.271,3.988 -1.271,3.988 0,0 0.988,-1.363 2.285,-3.554 1.289,-2.195 2.934,-5.184 4.098,-8.55 0.553,-1.616 0.999,-3.326 1.117,-5.146 10.845,-1.25 15.506,4.289 15.755,8.439 2.539,42.395 12.839,106.176 11.076,140.843"
             style="fill:#110f0d;fill-opacity:1;fill-rule:nonzero;stroke:none"
             id="path300" />
        </g>
      </g>
    </g>
  </g>
</svg>
