<?xml version="1.0" encoding="UTF-8" standalone="no"?>
<!-- Created with Inkscape (http://www.inkscape.org/) -->

<svg
   width="210mm"
   height="297mm"
   viewBox="0 0 210 297"
   version="1.1"
   id="svg5"
   inkscape:version="1.2.2 (b0a8486541, 2022-12-01, custom)"
   sodipodi:docname="repa.svg"
   xmlns:inkscape="http://www.inkscape.org/namespaces/inkscape"
   xmlns:sodipodi="http://sodipodi.sourceforge.net/DTD/sodipodi-0.dtd"
   xmlns="http://www.w3.org/2000/svg"
   xmlns:svg="http://www.w3.org/2000/svg">
  <sodipodi:namedview
     id="namedview7"
     pagecolor="#ffffff"
     bordercolor="#666666"
     borderopacity="1.0"
     inkscape:showpageshadow="2"
     inkscape:pageopacity="0.0"
     inkscape:pagecheckerboard="0"
     inkscape:deskcolor="#d1d1d1"
     inkscape:document-units="mm"
     showgrid="false"
     inkscape:zoom="0.46947952"
     inkscape:cx="370.6232"
     inkscape:cy="363.16813"
     inkscape:window-width="1530"
     inkscape:window-height="836"
     inkscape:window-x="0"
     inkscape:window-y="0"
     inkscape:window-maximized="1"
     inkscape:current-layer="layer1" />
  <defs
     id="defs2" />
  <g
     inkscape:label="Vrstva 1"
     inkscape:groupmode="layer"
     id="layer1">
    <g
       id="g4122"
       transform="matrix(-0.37036378,-0.92888679,-0.92888679,0.37036378,251.19156,159.8895)"
       style="opacity:0.15500969">
      <path
         id="path3787"
         style="opacity:0.99998;fill:#290016;fill-opacity:1;stroke:none;stroke-width:0.499999;stroke-opacity:1"
         d="m 100.56802,92.562826 a 46.846592,46.846592 0 0 0 -46.846235,46.846754 46.846592,46.846592 0 0 0 10.315133,29.31914 c 13.88655,20.34953 35.391372,36.62078 34.998897,55.58989 4.271155,-24.24273 26.436065,-34.70347 40.199095,-58.46517 a 46.846592,46.846592 0 0 0 8.17986,-26.44386 46.846592,46.846592 0 0 0 -46.84675,-46.846754 z" />
      <path
         id="path3844"
         style="fill:#005700;fill-opacity:1;stroke:none;stroke-width:0.264583px;stroke-linecap:butt;stroke-linejoin:miter;stroke-opacity:1"
         d="m 146.9492,41.670617 c -16.4009,12.378011 -61.850753,20.898008 -43.11262,37.942903 0.09,0.140911 0.17206,0.278562 0.19431,0.378789 -0.26625,0.437901 -0.57326,0.850034 -0.90847,1.243335 -0.693,0.814886 -1.40663,1.611931 -2.10272,2.424141 -0.78971,0.876687 -1.710036,1.61884 -2.579686,2.412773 -0.86865,0.765829 -1.6526,1.61951 -2.455662,2.452046 -0.72105,0.707173 -1.5209,1.318311 -2.19935,2.068091 -0.0425,0.04811 -0.0831,0.0973 -0.12351,0.146761 -0.16615,-0.51042 -0.35388,-1.014861 -0.52658,-1.519287 -0.288325,-0.842645 -0.638905,-1.662384 -1.039733,-2.457214 -0.380048,-0.581573 -0.787501,-1.144257 -1.18494,-1.714107 C 109.08163,68.135628 63.91792,59.633912 47.580584,47.303865 c 7.763662,16.508732 3.311317,40.376632 40.675553,39.053947 0.440339,0.612767 0.882273,1.225956 1.274341,1.870687 0.411346,0.77085 0.781891,1.564558 1.069702,2.390551 0.320905,0.932022 0.685264,1.873936 0.810803,2.856157 0.738706,-0.124607 1.47417,-0.26205 2.214339,-0.380339 0.19749,-0.03156 0.3969,-0.06972 0.59686,-0.10542 l 0.2651,-0.129708 c 0.0233,-0.09488 0.0652,-0.169047 0.13126,-0.239778 0.0708,-0.05617 0.10639,-0.143666 0.15193,-0.219625 0.0375,-0.09648 0.0652,-0.191367 0.12971,-0.270268 0.0446,-0.120523 0.0943,-0.238336 0.14469,-0.356567 0.13909,-0.258006 0.29303,-0.508157 0.40928,-0.778247 0.13069,-0.263809 0.27625,-0.519565 0.4377,-0.764812 0.259742,-0.32892 0.555442,-0.685138 0.944642,-1.115694 0.60371,-0.582134 1.25816,-1.109344 1.8433,-1.712557 0.79257,-0.826414 1.573246,-1.666483 2.434996,-2.422591 0.88334,-0.79873 1.81947,-1.548137 2.59519,-2.457214 0.52978,-0.611706 1.06095,-1.22194 1.58853,-1.835547 38.42095,1.776057 33.81989,-22.36474 41.65069,-39.016223 z" />
    </g>
  </g>
</svg>
